<?xml version="1.0" encoding="utf-8"?>
<!-- Generator: Adobe Illustrator 16.0.3, SVG Export Plug-In . SVG Version: 6.00 Build 0)  -->
<!DOCTYPE svg PUBLIC "-//W3C//DTD SVG 1.1//EN" "http://www.w3.org/Graphics/SVG/1.1/DTD/svg11.dtd">
<svg version="1.1" id="Publicdomainvectors.org" xmlns="http://www.w3.org/2000/svg" xmlns:xlink="http://www.w3.org/1999/xlink"
	 x="0px" y="0px" width="600px" height="600px" viewBox="0 0 600 600" enable-background="new 0 0 600 600" xml:space="preserve">
<g>
	<path fill="none" d="M221.202,10.556c0.422-0.61,1.115-1.052,2.079-1.173c0.959-0.127,2.031,0.059,3.064,0.479
		C224.642,10.097,222.927,10.328,221.202,10.556z"/>
	<path fill="none" d="M495.855,450.729c-0.137,0.814-0.402,1.584-0.805,2.215c-0.404,0.634-0.891,1.049-1.408,1.257
		C494.387,453.039,495.123,451.882,495.855,450.729z"/>
	<path fill="none" d="M74.894,443.627c-1.389-0.403-2.579-1.168-3.371-2.312c-0.815-1.131-1.142-2.487-1.031-3.901
		C71.95,439.494,73.436,441.553,74.894,443.627z"/>
	<path fill="#E51B1E" d="M221.03,243.654c-2.673-2.331-4.911-5.074-6.578-8.096c-5.003,4.05-12.026,6.229-19.673,5.373
		c-14.567-1.641-25.348-13.45-23.668-26.143c1.678-12.437,14.687-20.382,28.681-18.062c7.351,1.227,13.536,5.063,17.502,10.132
		c3.334-3.656,7.783-6.297,12.813-7.619c-3.542-4.003-5.879-8.713-6.761-13.535c-5.864,1.833-12.969,1.428-19.632-1.735
		c-12.611-5.999-18.39-19.204-12.757-29.133c5.506-9.638,19.587-12.184,31.372-6.053c6.227,3.253,10.622,8.311,12.644,13.739
		c2.609-1.246,5.487-2.04,8.501-2.333c11.434,18.201,22.783,36.256,34.04,54.172C259.89,223.5,241.101,233.243,221.03,243.654z"/>
	<path fill="#E51B1E" d="M273.606,562.085c-3.329-0.296-4.994-4.134-3.701-8.539c1.286-4.362,4.979-7.594,8.244-7.236
		c3.241,0.355,4.865,4.102,3.65,8.414C280.569,559.074,276.902,562.379,273.606,562.085z"/>
	<path fill="#E51B1E" d="M30.538,201.914c-5.122-0.684-8.557-4.207-7.638-7.848c0.903-3.607,5.771-5.922,10.822-5.183
		c4.99,0.739,8.318,4.186,7.476,7.742C40.362,200.209,35.604,202.585,30.538,201.914z"/>
	<path fill="#E51B1E" d="M30.943,324.298c-5.461,1.268-10.558-1.007-11.333-5.078c-0.762-4.064,3.091-8.307,8.545-9.484
		c5.407-1.149,10.33,1.135,11.123,5.097C40.031,318.817,36.347,323.043,30.943,324.298z"/>
	<path fill="#E51B1E" d="M91.669,216.44c-9.081-1.156-15.372-7.764-13.94-14.7c1.427-6.865,9.873-11.244,18.738-9.887
		c8.69,1.326,14.634,7.727,13.435,14.379C108.664,212.956,100.583,217.558,91.669,216.44z"/>
	<path fill="#E51B1E" d="M506.867,210.536c1.242,3.617,0.342,7.008-2.016,7.577c-2.389,0.568-5.35-1.959-6.604-5.653
		c-0.061-0.194-0.117-0.384-0.174-0.574c2.127-1.824,4.227-3.626,6.303-5.402C505.41,207.496,506.314,208.9,506.867,210.536z"/>
	<path fill="#E51B1E" d="M349.08,118.455c1.379-1.319,3.051-2.294,4.945-2.853c-3.141-3.755-5.145-8.38-5.158-12.781
		c-0.02-8.079,6.594-12.119,14.609-9.204c7.824,2.859,14.199,11.365,14.418,19.16c0.115,4.244-1.609,7.464-4.459,9.162
		c2.816,2.693,5.129,5.968,6.66,9.467c2.197-1.701,4.984-2.49,8.023-2.316c-2.02-4.025-2.732-8.403-1.621-11.988
		c2.043-6.546,9.313-7.86,16.188-3.126c6.752,4.664,10.748,13.546,9.021,20.045c-0.949,3.555-3.422,5.7-6.6,6.234
		c1.313,2.001,2.361,4.143,3.105,6.324c-10.221,5.299-20.949,10.868-32.229,16.714C367.072,148.445,358.107,133.498,349.08,118.455z
		"/>
	<path fill="#E51B1E" d="M153.503,36.741c2.563,2.421,2.711,5.428,0.326,6.778c-2.416,1.338-6.506,0.454-9.129-1.981
		c-2.636-2.462-2.762-5.521-0.299-6.85C146.861,33.398,150.912,34.312,153.503,36.741z"/>
	<path fill="#E51B1E" d="M75.042,103.443c-3.968-1.953-5.545-5.612-3.521-8.133c2.006-2.518,6.803-2.928,10.695-0.966
		c3.858,1.944,5.404,5.523,3.478,8.027C83.749,104.895,78.981,105.383,75.042,103.443z"/>
	<path fill="#E51B1E" d="M147.723,271.111c5.899-1.158,11.622-0.241,16.18,2.169c-11.234,5.829-22.857,11.855-34.886,18.093
		C128.896,281.957,136.73,273.295,147.723,271.111z"/>
	<path fill="#E51B1E" d="M473.678,233.375c-0.283,0.074-0.57,0.124-0.861,0.162c2.08-1.781,4.133-3.546,6.166-5.286
		C477.982,230.842,476.168,232.732,473.678,233.375z"/>
	<path fill="#E51B1E" d="M505.67,379.43c-2.451-4.086-4.908-8.177-7.367-12.278c0.076-0.287,0.154-0.571,0.256-0.845
		c1.422-3.936,4.805-4.971,7.564-2.36c2.742,2.598,3.889,7.864,2.539,11.819C508.029,377.65,506.936,378.897,505.67,379.43z"/>
	<path fill="#E51B1E" d="M504.445,311.112c-0.656,6.12-4.787,9.413-9.295,7.25c-4.566-2.201-7.668-9.098-6.895-15.323
		c0.775-6.126,5.02-9.15,9.455-6.865C502.086,298.437,505.082,305.075,504.445,311.112z"/>
	<path fill="#E51B1E" d="M464.076,241.031c1.406,1.548,2.664,3.343,3.703,5.315c1.789-2.754,4.586-4.205,7.883-3.655
		c6.004,1.008,11.467,8.287,12.334,16.391c0.869,8.199-3.264,14.368-9.373,13.688c-3.352-0.377-6.576-2.748-8.979-6.194
		c-1.139,2.876-2.953,5.137-5.256,6.496c2.184,2.776,3.855,6.177,4.84,9.804c2.564-1.953,5.877-2.289,9.23-0.541
		c6.137,3.204,10.209,12.248,9.184,20.404c-1.055,8.31-7.008,12.74-13.406,9.712c-3.494-1.661-6.352-5.206-8.047-9.469
		c-1.236,1.507-2.715,2.653-4.348,3.403c-8.33-13.876-16.703-27.842-25.137-41.892C446.275,256.292,455.387,248.478,464.076,241.031
		z"/>
	<path fill="#E51B1E" d="M471.686,321.761c2.764,2.641,4.693,6.394,5.635,10.422c-2.295-3.829-4.598-7.662-6.902-11.504
		C470.846,321.005,471.27,321.363,471.686,321.761z"/>
	<path fill="#E51B1E" d="M198.968,89.362c5.173,8.23,10.322,16.436,15.461,24.606c-4.206-0.715-8.512-2.723-11.983-5.919
		C195.991,102.084,194.73,94.21,198.968,89.362z"/>
	<path fill="#E51B1E" d="M530.771,261.727c1.236,0.185,2.438,1.846,2.707,3.714c0.254,1.874-0.527,3.264-1.77,3.1
		c-1.246-0.17-2.469-1.838-2.729-3.73C528.721,262.923,529.527,261.551,530.771,261.727z"/>
	<path fill="#E51B1E" d="M191.837,78.014c-0.208,0.167-0.412,0.342-0.649,0.488c-4.397,2.904-12.064,1.54-17.101-3.117
		c-5.07-4.697-5.421-10.849-0.799-13.647c2.06-1.273,4.773-1.615,7.563-1.207C184.523,66.373,188.184,72.201,191.837,78.014z"/>
	<path fill="#E51B1E" d="M385.088,385.559c-1.439,2.551-3.229,4.808-5.279,6.669c3.639,3.659,6.021,9.255,6.203,15.799
		c0.33,12.298-7.242,23.604-17.205,25.128c-10.281,1.561-18.877-7.866-18.928-20.906c-0.02-6.934,2.424-13.325,6.246-17.86
		c-3.662-2.461-6.668-6.19-8.621-10.754c-3.08,4.007-7.037,7.025-11.406,8.702c2.701,5.293,3.494,12.086,1.66,18.978
		c-3.488,13.042-15.123,21.7-26.188,18.973c-11.358-2.829-17.283-16.382-13.09-29.896c2.217-7.129,6.797-12.649,12.205-15.686
		c-1.87-2.5-3.325-5.383-4.29-8.51c16.79-14.389,32.528-27.887,47.321-40.563C364.252,352.399,374.711,369.04,385.088,385.559z"/>
	<path fill="#E51B1E" d="M369.607,484.291c5.182-1.196,9.439,3.388,9.594,10.265c0.145,6.954-3.934,13.761-9.197,15.174
		c-5.35,1.447-9.797-3.224-9.865-10.4C360.066,492.222,364.338,485.501,369.607,484.291z"/>
	<path fill="#E51B1E" d="M370.441,537.503c2.686-0.832,4.898,1.459,4.969,5.142c0.07,3.71-2.047,7.456-4.762,8.349
		c-2.73,0.9-4.994-1.41-5.045-5.176C365.563,542.067,367.734,538.36,370.441,537.503z"/>
	<path fill="#E51B1E" d="M311.174,431.67c8.334,2.051,12.703,12.024,9.855,22.513c-2.92,10.716-12.306,18.17-21.083,16.443
		c-8.957-1.789-13.566-12.356-10.203-23.392C293.038,436.438,302.662,429.594,311.174,431.67z"/>
	<path fill="#E51B1E" d="M217.082,454.092c5.786,3.805,6.421,12.75,1.392,20.153c-5.148,7.55-14.276,10.719-20.37,6.903
		c-2.774-1.742-4.401-4.626-4.844-7.974c7.817-6.697,15.442-13.234,22.883-19.615C216.464,453.718,216.776,453.894,217.082,454.092z
		"/>
	<path fill="#E51B1E" d="M484.162,223.813c3.283-2.814,6.502-5.577,9.664-8.285c0.975,4.833-0.584,9.069-3.939,9.913
		C488.047,225.897,486.006,225.25,484.162,223.813z"/>
	<path fill="#E51B1E" d="M295.565,485.854c5.983,1.071,9.058,8.125,6.909,15.864c-2.183,7.862-8.929,13.592-15.139,12.692
		c-6.298-0.911-9.487-8.259-7.093-16.298C282.619,490.194,289.486,484.778,295.565,485.854z"/>
	<path fill="#E51B1E" d="M520.439,319.084c-0.338,4.014-2.902,6.187-5.734,4.81c-2.85-1.39-4.855-5.835-4.457-9.888
		c0.4-4.015,3.002-6.069,5.803-4.641C518.824,310.782,520.789,315.114,520.439,319.084z"/>
	<path fill="#E51B1E" d="M165.138,516.173c3.035-4.259,8.095-6.094,11.358-4.196c3.213,1.932,3.474,6.861,0.533,11.13
		c-2.975,4.294-8.075,6.269-11.403,4.371C162.295,525.549,162.075,520.473,165.138,516.173z"/>
	<path fill="#E51B1E" d="M368.822,434.451c7.518-1.137,13.652,5.675,13.9,15.341c0.234,9.79-5.658,19.091-13.332,20.71
		c-7.865,1.643-14.424-5.403-14.5-15.655C354.834,444.726,361.137,435.64,368.822,434.451z"/>
	<path fill="#E51B1E" d="M396.432,404.664c-0.166-0.578-0.307-1.161-0.436-1.746c2.674,4.252,5.34,8.498,8.002,12.735
		C400.648,413.472,397.895,409.684,396.432,404.664z"/>
	<path fill="#E51B1E" d="M410.832,438.747c-1.168-4.004-1.07-8.346,0.025-12.179c4.457,7.087,8.895,14.153,13.318,21.195
		C418.713,449.787,413.006,446.167,410.832,438.747z"/>
	<path fill="#E51B1E" d="M146.077,229.358c-12.167-1.453-20.888-10.812-19.222-20.749c1.651-9.79,12.734-16.051,24.508-14.168
		c11.453,1.836,19.508,10.775,18.245,20.134C168.322,224.082,157.912,230.765,146.077,229.358z"/>
	<path fill="#E51B1E" d="M513.557,255.781c2.637,0.408,5.148,3.825,5.646,7.662c0.494,3.862-1.227,6.733-3.879,6.397
		c-2.68-0.334-5.268-3.814-5.746-7.74C509.102,258.188,510.893,255.374,513.557,255.781z"/>
	<path fill="#E51B1E" d="M435.559,477.949c-3.957,2.958-8.57,0.76-10.234-4.911c-1.656-5.655,0.287-12.492,4.268-15.257
		c0.213-0.144,0.424-0.27,0.637-0.386c3.076,4.9,6.152,9.785,9.213,14.664C438.666,474.498,437.34,476.636,435.559,477.949z"/>
	<path fill="#E51B1E" d="M446.947,501.797c0.832,2.831-0.043,6.394-1.975,8.001c-1.955,1.605-4.227,0.592-5.078-2.278
		c-0.84-2.866,0.074-6.458,2.031-8.022C443.873,497.946,446.104,498.984,446.947,501.797z"/>
	<path fill="#E51B1E" d="M121.257,132.358c-7.337-3.569-10.401-10.621-6.809-15.653c3.533-4.961,12.148-5.974,19.217-2.373
		c6.948,3.547,9.909,10.332,6.644,15.262C136.995,134.594,128.484,135.88,121.257,132.358z"/>
	<path fill="#E51B1E" d="M154.14,136.489c4.686-7.331,16.348-9.065,26.001-4.095c9.454,4.891,13.687,14.537,9.551,21.818
		c-4.249,7.412-15.681,9.718-25.673,4.921C153.837,154.227,149.366,143.987,154.14,136.489z"/>
	<path fill="#E51B1E" d="M254.549,431.715c-5.936,8.833-16.198,12.832-24.337,9.784c9.84-8.434,19.363-16.595,28.58-24.498
		C259.058,421.784,257.694,427.021,254.549,431.715z"/>
	<path fill="#E51B1E" d="M78.081,306.185c-1.574-7.561,4.961-15.265,14.375-17.221c9.204-1.882,17.78,2.449,19.354,9.696
		c0.107,0.51,0.185,1.018,0.21,1.527c-8.907,4.618-18.039,9.354-27.402,14.211C81.256,312.62,78.824,309.768,78.081,306.185z"/>
	<path fill="#E51B1E" d="M363.467,92.838c-5.992-2.202-10.951-8.772-10.994-14.613c-0.033-5.785,4.781-8.495,10.668-6.168
		c5.779,2.299,10.502,8.661,10.645,14.299C373.926,92.051,369.355,94.982,363.467,92.838z"/>
	<path fill="#E51B1E" d="M363.021,64.546c-3.889-1.586-7.1-5.915-7.137-9.617c-0.033-3.688,3.086-5.303,6.932-3.655
		c3.795,1.628,6.906,5.852,6.984,9.477C369.881,64.399,366.865,66.114,363.021,64.546z"/>
	<path fill="#E51B1E" d="M402.869,113.336c-5.133-3.543-8.172-10.3-6.746-14.986c1.408-4.623,6.621-5.401,11.594-1.825
		c4.912,3.518,7.834,10.021,6.59,14.621C413.033,115.813,407.938,116.838,402.869,113.336z"/>
	<path fill="#E51B1E" d="M362.602,37.587c-1.895-0.852-3.453-2.98-3.48-4.747c-0.021-1.765,1.494-2.486,3.385-1.619
		c1.863,0.86,3.404,2.964,3.438,4.712C365.973,37.687,364.488,38.43,362.602,37.587z"/>
	<path fill="#E51B1E" d="M417.023,64.191c1.545,1.188,2.48,3.254,2.096,4.627c-0.395,1.378-1.969,1.541-3.527,0.35
		c-1.564-1.191-2.508-3.277-2.105-4.655C413.889,63.139,415.479,63,417.023,64.191z"/>
	<path fill="#E51B1E" d="M447.688,125.238c-2.619-2.951-3.486-7.092-1.949-9.233c1.529-2.107,4.832-1.435,7.391,1.476
		c1.203,1.37,2.027,2.994,2.412,4.555c-2.4,1.243-4.832,2.503-7.293,3.782C448.057,125.636,447.873,125.442,447.688,125.238z"/>
	<path fill="#E51B1E" d="M462.152,110.366c-0.697,1.007-2.262,0.667-3.506-0.759c-1.244-1.435-1.676-3.408-0.967-4.411
		c0.707-0.99,2.275-0.635,3.504,0.791C462.412,107.405,462.844,109.365,462.152,110.366z"/>
	<path fill="#E51B1E" d="M286.233,394.358c-3.54,5.357-8.48,9.111-13.814,10.96c5.067-4.339,10.042-8.603,14.924-12.793
		C286.999,393.145,286.633,393.757,286.233,394.358z"/>
	<path fill="#E51B1E" d="M304.627,35.047c4.346,0.586,8.854,4.514,10.129,8.783c1.274,4.284-1.16,7.383-5.495,6.898
		c-0.302-0.035-0.606-0.083-0.911-0.153c-2.834-4.719-5.67-9.449-8.513-14.188C300.893,35.295,302.554,34.762,304.627,35.047z"/>
	<path fill="#E51B1E" d="M493.422,359.019c-3.609-6.014-7.227-12.045-10.855-18.092c2.131-0.478,4.475,0.213,6.564,2.199
		C492.92,346.742,494.646,353.448,493.422,359.019z"/>
	<path fill="#E51B1E" d="M326.98,72.351c0.951,3.184,0.59,5.989-0.77,7.991c-4.076-6.801-8.17-13.617-12.273-20.456
		C319.701,61.378,325.239,66.557,326.98,72.351z"/>
	<path fill="#E51B1E" d="M294.636,14.126c-0.63-2.145,0.659-3.552,2.861-3.184c2.197,0.38,4.465,2.396,5.096,4.514
		c0.625,2.118-0.623,3.543-2.811,3.199C297.574,18.283,295.271,16.27,294.636,14.126z"/>
	<path fill="#E51B1E" d="M432.863,127.657c2.229-3.023,6.646-2.579,10.414,0.737c-3.748,1.946-7.57,3.928-11.469,5.948
		C431.318,131.763,431.637,129.339,432.863,127.657z"/>
	<path fill="#E51B1E" d="M519.104,385.541c0.635-1.992,2.23-2.574,3.568-1.317c1.336,1.259,1.924,3.88,1.299,5.881
		c-0.617,2.005-2.215,2.622-3.568,1.365C519.049,390.203,518.471,387.551,519.104,385.541z"/>
	<path fill="#E51B1E" d="M409.445,90.504c-3.264-2.384-5.223-6.713-4.344-9.642c0.867-2.905,4.182-3.3,7.387-0.912
		c3.178,2.36,5.086,6.587,4.285,9.49C415.961,92.366,412.695,92.855,409.445,90.504z"/>
	<path fill="#E51B1E" d="M488.586,259.167c-0.646-6.082,2.35-10.401,6.639-9.718c4.213,0.679,8.139,5.963,8.842,11.876
		c0.705,5.964-2.123,10.433-6.389,9.925C493.346,270.731,489.242,265.295,488.586,259.167z"/>
	<path fill="#E51B1E" d="M195.732,255.603c1.021-0.194,2.037-0.327,3.045-0.409c-6.328,3.281-12.784,6.628-19.372,10.046
		C183.249,260.438,188.955,256.892,195.732,255.603z"/>
	<path fill="#E51B1E" d="M229.813,139.566c-4.249-3.896-6.79-8.576-7.544-13.122c3.023,4.809,6.04,9.607,9.047,14.398
		C230.806,140.436,230.301,140.016,229.813,139.566z"/>
	<path fill="#E51B1E" d="M339.254,101c0.188,0.62,0.336,1.231,0.451,1.831c-2.541-4.233-5.086-8.476-7.635-12.725
		C335.383,93.041,338.01,96.861,339.254,101z"/>
	<path fill="#E51B1E" d="M418.947,140.255c1.713-2.301,4.297-3.241,7.123-2.936c-2.576,1.335-5.184,2.688-7.826,4.058
		C418.451,140.983,418.684,140.606,418.947,140.255z"/>
	<path fill="#E51B1E" d="M518.709,211.329c-1.111,0.25-2.504-0.968-3.111-2.737c-0.604-1.767-0.191-3.386,0.92-3.628
		c1.105-0.238,2.486,0.987,3.088,2.736C520.211,209.448,519.809,211.072,518.709,211.329z"/>
	<path fill="#E51B1E" d="M533.537,321.932c1.32,0.668,2.273,2.791,2.146,4.748c-0.137,1.978-1.322,3.055-2.66,2.392
		c-1.338-0.659-2.301-2.808-2.158-4.79C531.018,322.308,532.209,321.265,533.537,321.932z"/>
	<path fill="#FFFFFF" d="M492.855,360.962c-2.238,5.992-7.613,7.646-12.037,3.576c-4.457-4.114-6.111-12.363-3.709-18.316
		c1.213-2.988,3.223-4.785,5.457-5.295c3.629,6.047,7.246,12.078,10.855,18.092C493.271,359.684,493.086,360.333,492.855,360.962z"
		/>
	<path fill="#FFFFFF" d="M501.1,378.335c-2.639-2.446-3.809-7.303-2.797-11.184c2.459,4.102,4.916,8.192,7.367,12.278
		C504.244,380.027,502.594,379.717,501.1,378.335z"/>
	<path fill="#FFFFFF" d="M190.269,65.113c4.571,4.324,5.188,9.892,1.568,12.901c-3.653-5.813-7.314-11.641-10.985-17.482
		C184.174,61.028,187.62,62.607,190.269,65.113z"/>
	<path fill="#FFFFFF" d="M200.929,87.623c6.313-4.343,16.946-2.44,23.835,4.112c6.807,6.483,7.605,15.275,1.741,19.833
		c-3.126,2.415-7.536,3.164-12.076,2.4c-5.14-8.17-10.288-16.376-15.461-24.606C199.528,88.726,200.182,88.145,200.929,87.623z"/>
	<path fill="#FFFFFF" d="M436.705,264.493c8.434,14.05,16.807,28.016,25.137,41.892c-0.914,0.418-1.877,0.719-2.877,0.871
		c1.619,3.541,2.551,7.5,2.682,11.432c2.814-0.794,5.93-0.17,8.771,1.991c2.305,3.842,4.607,7.675,6.902,11.504
		c1.047,4.497,0.873,9.382-0.799,13.489c-2.693,6.625-8.436,9.149-13.859,6.537c-14.465-23.861-29.082-47.984-43.861-72.369
		C424.947,274.57,430.914,269.457,436.705,264.493z"/>
	<path fill="#FFFFFF" d="M354.82,174.27c-15.697-25.898-31.57-52.092-47.627-78.583c-0.141-6.959,4.666-11.741,12.009-11.329
		c4.54,0.262,9.152,2.461,12.868,5.748c2.549,4.25,5.094,8.492,7.635,12.725c0.762,3.971,0.006,7.483-1.924,10.007
		c3.537,2,6.756,4.825,9.279,8.155c0.566-0.953,1.248-1.799,2.02-2.538c9.027,15.042,17.992,29.99,26.904,44.838
		C369.143,166.843,362.092,170.5,354.82,174.27z"/>
	<path fill="#FFFFFF" d="M426.309,446.669c-0.699,0.468-1.414,0.825-2.133,1.095c-4.424-7.042-8.861-14.108-13.318-21.195
		c1.186-4.148,3.529-7.68,6.684-9.563c5.949-3.51,12.57,0.118,14.967,8.096C434.898,433.126,432.186,442.739,426.309,446.669z"/>
	<path fill="#FFFFFF" d="M430.229,457.396c3.768-2.061,7.826,0.214,9.375,5.396c0.889,2.996,0.766,6.356-0.162,9.268
		C436.381,467.181,433.305,462.296,430.229,457.396z"/>
	<path fill="#FFFFFF" d="M277.513,214.361c-11.257-17.916-22.605-35.971-34.04-54.172c1.802-0.186,3.653-0.184,5.522-0.008
		c-2.01-4.414-2.691-9.021-2.014-13.252c-5.298-0.259-10.93-2.316-15.665-6.086c-3.007-4.791-6.024-9.589-9.047-14.398
		c-0.893-5.448,0.8-10.628,5.157-14.017c6.419-4.973,16.551-4.449,24.761,0.509c18.144,29.257,36.059,58.15,53.754,86.683
		C296.797,204.361,287.327,209.272,277.513,214.361z"/>
	<path fill="#FFFFFF" d="M308.35,50.575c-4.115-0.896-8.237-4.613-9.434-8.703c-0.678-2.315-0.268-4.258,0.921-5.485
		C302.68,41.126,305.516,45.856,308.35,50.575z"/>
	<path fill="#FFFFFF" d="M377.592,315.164c16.564,26.707,32.926,53.097,49.098,79.173c0.654,8.81-2.971,17.731-9.465,21.587
		c-4.422,2.616-9.223,2.333-13.227-0.271c-2.662-4.237-5.328-8.483-8.002-12.735c-1.174-5.429-0.604-11.068,1.293-15.808
		c-3.711-0.879-7.188-3.103-9.998-6.423c-0.605,1.711-1.344,3.343-2.203,4.871c-10.377-16.519-20.836-33.159-31.373-49.927
		C361.949,328.571,369.904,321.754,377.592,315.164z"/>
	<path fill="#FFFFFF" d="M311.861,59.511c0.691,0.071,1.385,0.197,2.076,0.375c4.104,6.838,8.197,13.655,12.273,20.456
		c-1.432,2.098-3.966,3.317-7.27,3.13c-6.588-0.396-13.634-6.209-15.611-12.967C301.367,63.771,305.238,58.878,311.861,59.511z"/>
	<path fill="#FFFFFF" d="M455.084,126.583c-1.373,2.022-4.33,1.649-6.836-0.766c2.461-1.279,4.893-2.539,7.293-3.782
		C455.975,123.779,455.859,125.449,455.084,126.583z"/>
	<path fill="#FFFFFF" d="M156.279,308.486c-12.311,3.047-24.498-3.073-26.875-13.756c-0.249-1.121-0.367-2.244-0.388-3.357
		c12.029-6.237,23.652-12.264,34.886-18.093c4.693,2.48,8.192,6.564,9.396,11.664C175.661,294.997,168.188,305.507,156.279,308.486z
		"/>
	<path fill="#FFFFFF" d="M196.874,460.397c5.066-7.009,13.434-9.825,19.269-6.838c-7.441,6.381-15.065,12.918-22.883,19.615
		C192.725,469.151,193.909,464.499,196.874,460.397z"/>
	<path fill="#FFFFFF" d="M227.054,439.878c-8.556-5.753-9.45-18.772-2.137-28.765c7.124-9.688,19.254-12.69,27.21-7.002
		c4.118,2.949,6.367,7.679,6.664,12.89c-9.217,7.903-18.739,16.064-28.58,24.498C229.115,441.079,228.051,440.555,227.054,439.878z"
		/>
	<path fill="#FFFFFF" d="M444.57,129.678c3.961,4.43,5.287,10.748,2.971,14.218c-2.367,3.516-7.611,2.79-11.734-1.715
		c-2.107-2.317-3.488-5.151-3.998-7.839c3.898-2.02,7.721-4.002,11.469-5.948C443.719,128.784,444.15,129.21,444.57,129.678z"/>
	<path fill="#FFFFFF" d="M98.132,315.82c-4.939,1.194-9.783,0.558-13.513-1.422c9.363-4.857,18.495-9.593,27.402-14.211
		C112.51,306.972,106.709,313.767,98.132,315.82z"/>
	<path fill="#FFFFFF" d="M479.338,216.677c-1.914-5.783-0.244-11.08,3.66-11.86c3.84-0.752,8.42,3.151,10.303,8.75
		c0.221,0.661,0.393,1.316,0.525,1.961c-3.162,2.708-6.381,5.47-9.664,8.285C482.131,222.233,480.344,219.709,479.338,216.677z"/>
	<path fill="#FFFFFF" d="M498.074,211.887c-0.965-3.459,0.016-6.526,2.291-6.993c1.303-0.27,2.758,0.372,4.012,1.591
		C502.301,208.26,500.201,210.063,498.074,211.887z"/>
	<path fill="#FFFFFF" d="M418.801,279.84c-5.221-8.611-10.457-17.258-15.719-25.936c23.816-18.208,45.105-34.487,64.254-49.126
		c4.664,0.943,9.367,5.692,11.469,12.022c1.402,4.237,1.373,8.352,0.178,11.452c-2.033,1.739-4.086,3.504-6.166,5.286
		c-2.766,0.363-5.752-0.842-8.355-3.148c-0.346,3.195-1.412,6.018-3.111,8.119c0.957,0.737,1.871,1.584,2.727,2.522
		c-8.689,7.447-17.801,15.261-27.371,23.462C430.914,269.457,424.947,274.57,418.801,279.84z"/>
	<path fill="#FFFFFF" d="M371.096,201.125c-5.404-8.917-10.83-17.868-16.275-26.855c7.271-3.77,14.322-7.427,21.164-10.976
		c11.279-5.846,22.008-11.415,32.229-16.714c0.414,1.209,0.734,2.432,0.951,3.648c2.561-0.741,5.467-0.536,8.379,0.561
		c-0.832-3.472-0.643-6.85,0.701-9.412c2.643-1.37,5.25-2.723,7.826-4.058c3.096,0.328,6.488,2.158,9.398,5.337
		c4.59,5.028,6.592,11.968,5.221,17.008C419.971,172.008,396.912,185.745,371.096,201.125z"/>
	<path fill="#FFFFFF" d="M305.941,199.619c6.112,9.857,12.199,19.671,18.258,29.444c-17.162,10.225-35.535,21.17-55.248,32.915
		c-21.208,12.635-44.086,26.264-68.84,41.013c-11.912,0.097-22.64-7.215-25.288-18.39c-1.64-6.991,0.267-13.947,4.583-19.36
		c6.588-3.418,13.044-6.765,19.372-10.046c6.453-0.524,12.61,1.17,17.488,4.41c1.886-4.958,5.204-9.292,9.558-12.484
		c-1.715-1.012-3.315-2.18-4.794-3.466c20.071-10.411,38.86-20.154,56.483-29.293C287.327,209.272,296.797,204.361,305.941,199.619z
		"/>
	<path fill="#FFFFFF" d="M360.021,286.828c5.881,9.485,11.738,18.931,17.57,28.336c-7.688,6.59-15.643,13.407-23.877,20.468
		c-14.793,12.677-30.531,26.175-47.321,40.563c-0.582-1.891-0.989-3.866-1.2-5.896c-4.439,2.786-9.473,4.213-14.497,4.122
		c0.958,5.832-0.087,12.293-3.353,18.104c-4.883,4.19-9.857,8.454-14.924,12.793c-6.562,2.271-13.684,1.642-19.412-2.455
		c-8.677-6.235-11.147-18.272-6.856-28.972c22.671-17.337,43.647-33.368,63.104-48.248
		C327.356,311.803,344.24,298.896,360.021,286.828z"/>
	<path fill="#202A5E" d="M490.607,452.825c-1.227-2.004-1.205-5.178,0.033-7.079c1.23-1.884,3.207-1.802,4.418,0.177
		c0.809,1.319,1.072,3.162,0.797,4.806c-0.732,1.153-1.469,2.311-2.213,3.472C492.594,454.619,491.432,454.159,490.607,452.825z"/>
	<path fill="#202A5E" d="M230.317,13.132c1.456,2.389,0.708,4.621-1.694,4.97c-2.423,0.363-5.608-1.308-7.097-3.728
		c-0.906-1.468-0.955-2.866-0.324-3.818c1.725-0.228,3.439-0.459,5.144-0.694C227.931,10.497,229.429,11.684,230.317,13.132z"/>
	<path fill="#202A5E" d="M453.072,406.366c-3.832-6.233-3.459-15.548,0.762-20.694c4.127-5.031,10.375-4.152,14.045,1.854
		c3.652,5.996,3.449,14.998-0.5,20.253C463.324,413.144,456.902,412.576,453.072,406.366z"/>
	<path fill="#202A5E" d="M253.45,43.365c2.854,4.68,1.508,9.251-3.071,10.246c-4.657,1.005-10.87-2.063-13.834-6.871
		c-2.963-4.833-1.474-9.481,3.287-10.343C244.512,35.534,250.578,38.674,253.45,43.365z"/>
	<path fill="#202A5E" d="M472.084,429.891c-2.502-4.077-2.361-10.349,0.281-13.972c2.611-3.563,6.662-3.189,9.094,0.788
		c2.424,3.974,2.363,10.116-0.174,13.77C478.717,434.195,474.588,433.954,472.084,429.891z"/>
	<path fill="#202A5E" d="M275.96,72.778c4.196,6.888,2.393,13.931-4.146,15.817c-6.702,1.92-15.817-2.275-20.241-9.453
		c-4.43-7.202-2.292-14.391,4.634-16.019C262.968,61.535,271.746,65.876,275.96,72.778z"/>
	<path fill="#202A5E" d="M360.021,286.828c15.291-11.69,29.615-22.643,43.061-32.924c5.262,8.678,10.498,17.325,15.719,25.936
		c14.779,24.385,29.396,48.508,43.861,72.369c-1.082-0.521-2.146-1.243-3.17-2.18c-3.354-3.075-5.523-7.768-6.246-12.688
		c-2.688,1.564-5.766,2.062-8.871,1.381c0.814,4.171,0.771,8.503-0.117,12.494c3.734,0.382,7.412,2.82,10.057,7.162
		c4.885,8.036,4.5,19.786-0.986,26.468c-5.66,6.878-14.564,5.798-19.771-2.631c-2.813-4.559-3.881-10.256-3.334-15.564
		c-3.32,0.491-6.771-0.264-9.926-2.225c-0.268,4.569-1.502,8.962-3.563,12.678c3.926,1.945,7.236,5.981,8.918,11.567
		c0.557,1.856,0.895,3.762,1.037,5.665c-16.172-26.076-32.533-52.466-49.098-79.173C371.76,305.759,365.902,296.313,360.021,286.828
		z"/>
	<path fill="#202A5E" d="M371.096,201.125c-14.633,8.717-30.23,18.01-46.896,27.938c-6.059-9.773-12.146-19.587-18.258-29.444
		c-17.696-28.533-35.611-57.426-53.754-86.683c1.764,1.07,3.45,2.342,4.996,3.816c4.63,4.43,7.101,9.795,7.314,14.79
		c4.372-0.374,9.031,0.42,13.445,2.299c-0.536-4.184,0.194-8.112,2.039-11.32c-5.239-1.957-10.19-5.801-13.355-10.926
		c-5.879-9.545-3.193-19.46,5.765-22.06c8.682-2.503,19.981,2.857,25.485,11.882c2.953,4.853,3.678,9.849,2.466,13.906
		c4.098,0.986,8.144,3,11.668,5.818c0.682-3.526,2.442-6.473,5.031-8.505c-4.258-3.106-7.705-7.605-9.154-12.582
		c-0.441-1.522-0.666-2.985-0.693-4.367c16.057,26.491,31.93,52.684,47.627,78.583C360.266,183.256,365.691,192.208,371.096,201.125
		z"/>
	<path fill="#202A5E" d="M128.301,386.088c7.969-5.202,17.712-4.281,21.95,1.906c4.221,6.176,1.484,15.487-6.261,20.93
		c-7.925,5.552-18.081,4.974-22.52-1.437C117.028,401.053,120.147,391.423,128.301,386.088z"/>
	<path fill="#202A5E" d="M464.271,204.736c1.002-0.188,2.031-0.164,3.064,0.042c-19.148,14.639-40.438,30.918-64.254,49.126
		c-13.445,10.282-27.77,21.234-43.061,32.924c-15.781,12.067-32.665,24.975-50.767,38.815
		c-19.457,14.88-40.433,30.911-63.104,48.248c0.926-2.308,2.163-4.542,3.72-6.633c4.615-6.196,11.055-9.823,17.495-10.683
		c-1.715-5.15-1.986-10.824-0.786-16.316c-5.348,0.981-10.833,0.414-15.793-1.633c-1.092,6.703-4.889,13.242-11.125,17.775
		c-11.936,8.66-28.095,6.695-35.734-4.762c-7.658-11.532-3.304-27.57,9.276-35.498c6.576-4.142,14.041-5.173,20.593-3.57
		c0.056-5.515,1.673-10.962,4.659-15.669c-5.501-1.057-10.607-3.6-14.698-7.323c-3.292,5.846-9.147,10.558-16.675,12.499
		c-2.33,0.599-4.669,0.891-6.972,0.911c24.754-14.749,47.633-28.378,68.84-41.013c19.713-11.745,38.086-22.69,55.248-32.915
		c16.666-9.928,32.264-19.222,46.896-27.938c25.816-15.379,48.875-29.116,69.594-41.461c-0.27,1.001-0.676,1.931-1.221,2.757
		c-1.803,2.729-4.771,3.764-8.041,3.206c1.25,3.316,1.795,6.733,1.549,9.862c2.721,0.19,5.559,1.311,8.189,3.207
		c0.023-3.776,1.365-6.987,3.961-8.625c4.732-2.972,11.814,0.383,15.926,7.425c4.094,7.023,3.82,15.293-0.693,18.573
		c-2.479,1.801-5.734,1.728-8.895,0.144c0.453,3.337,0.17,6.54-0.842,9.229c2.713,1.087,5.322,3.046,7.539,5.63
		C459.098,207.715,461.234,205.312,464.271,204.736z"/>
	<path fill="#202A5E" d="M473.242,169.239c2.959,5.098,2.828,11.023-0.32,13.286c-3.223,2.288-8.354-0.075-11.422-5.333
		c-3.066-5.276-2.83-11.315,0.5-13.453C465.264,161.646,470.277,164.122,473.242,169.239z"/>
	<path fill="#202A5E" d="M495.342,158.314c-0.93,0.634-2.436-0.151-3.359-1.767c-0.93-1.616-0.918-3.434,0.018-4.061
		c0.934-0.615,2.426,0.182,3.344,1.783C496.256,155.872,496.262,157.675,495.342,158.314z"/>
	<path fill="#202A5E" d="M165.255,377.832c-6.172-9.118-2.279-22.256,8.403-29.132c10.372-6.634,23.208-4.825,28.964,3.824
		c5.717,8.629,2.527,21.176-7.419,28.285C184.941,388.125,171.422,386.912,165.255,377.832z"/>
	<path fill="#202A5E" d="M484.648,161.513c1.9,3.296,1.863,7.075-0.105,8.458c-1.992,1.394-5.195-0.188-7.141-3.55
		c-1.949-3.367-1.861-7.188,0.17-8.523C479.588,156.586,482.746,158.213,484.648,161.513z"/>
	<path fill="#202A5E" d="M75.693,429.437c4.652-3.08,10.277-2.845,12.637,0.496c2.342,3.346,0.576,8.575-3.999,11.738
		c-3.088,2.122-6.672,2.77-9.437,1.956c-1.458-2.074-2.944-4.133-4.402-6.213C70.675,434.587,72.57,431.528,75.693,429.437z"/>
</g>
</svg>
